<svg height="2238" width="720" xmlns="http://www.w3.org/2000/svg">
<rect height="2238" fill="#555" width="720"></rect>
<text fill="#7f7" font-family="Courier New" font-size="12" xml:space="preserve">
<tspan x="10" y="26"></tspan>
<tspan x="10" y="42">&gt; npmdoc-react-native-sqlite-storage@0.0.1 test /home/travis/build/npmdoc/node-npmdoc-react-nati\</tspan>
<tspan x="10" y="58">ve-sqlite-storage</tspan>
<tspan x="10" y="74">&gt; (set -e; export PORT=$(utility2 shServerPortRandom); utility2 test test.js)</tspan>
<tspan x="10" y="90"></tspan>
<tspan x="10" y="106"></tspan>
<tspan x="10" y="122">[MODE_BUILD=npmTest] - 2017-04-07T10:48:35Z - npm-testing /home/travis/build/npmdoc/node-npmdoc-\</tspan>
<tspan x="10" y="138">react-native-sqlite-storage</tspan>
<tspan x="10" y="154"></tspan>
<tspan x="10" y="170"></tspan>
<tspan x="10" y="186">covering $ /home/travis/.nvm/versions/node/v6.10.2/bin/node /home/travis/build/npmdoc/node-npmdo\</tspan>
<tspan x="10" y="202">c-react-native-sqlite-storage/test.js</tspan>
<tspan x="10" y="218">merging file:///home/travis/build/npmdoc/node-npmdoc-react-native-sqlite-storage/tmp/build/test-\</tspan>
<tspan x="10" y="234">report.json to test-report</tspan>
<tspan x="10" y="250">&gt; server listening on http-port 49255</tspan>
<tspan x="10" y="266">created apidoc file:///home/travis/build/npmdoc/node-npmdoc-react-native-sqlite-storage/tmp/buil\</tspan>
<tspan x="10" y="282">d/apidoc.html</tspan>
<tspan x="10" y="298"></tspan>
<tspan x="10" y="314"></tspan>
<tspan x="10" y="330">browserTest - created electron entry-page /home/travis/build/npmdoc/node-npmdoc-react-native-sql\</tspan>
<tspan x="10" y="346">ite-storage/tmp/electron.15b4807b4360.f1b37505fc39d.html</tspan>
<tspan x="10" y="362"></tspan>
<tspan x="10" y="378">[node test-case 1 of 6 passed] - testCase_buildLib_default</tspan>
<tspan x="10" y="394">[node test-case 2 of 6 passed] - testCase_buildReadme_default</tspan>
<tspan x="10" y="410">[node test-case 3 of 6 passed] - testCase_buildTest_default</tspan>
<tspan x="10" y="426"></tspan>
<tspan x="10" y="442">browserTest - created electron entry-page /home/travis/build/npmdoc/node-npmdoc-react-native-sql\</tspan>
<tspan x="10" y="458">ite-storage/tmp/electron.15b4807b47c0.1ab7a910244e7.html</tspan>
<tspan x="10" y="474"></tspan>
<tspan x="10" y="490">Xlib:  extension "RANDR" missing on display ":99.0".</tspan>
<tspan x="10" y="506">Xlib:  extension "RANDR" missing on display ":99.0".</tspan>
<tspan x="10" y="522">merging file:///home/travis/build/npmdoc/node-npmdoc-react-native-sqlite-storage/tmp/build/test-\</tspan>
<tspan x="10" y="538">report.json to test-report</tspan>
<tspan x="10" y="554">Xlib:  extension "RANDR" missing on display ":99.0".</tspan>
<tspan x="10" y="570">[6110:0407/104836:WARNING:audio_manager.cc(314)] Multiple instances of AudioManager detected</tspan>
<tspan x="10" y="586">[6110:0407/104836:WARNING:audio_manager.cc(275)] Multiple instances of AudioManager detected</tspan>
<tspan x="10" y="602">[6139:0407/104837:ERROR:sandbox_linux.cc(343)] InitializeSandbox() called with multiple threads \</tspan>
<tspan x="10" y="618">in process gpu-process. </tspan>
<tspan x="10" y="634">merging file:///home/travis/build/npmdoc/node-npmdoc-react-native-sqlite-storage/tmp/build/test-\</tspan>
<tspan x="10" y="650">report.json to test-report</tspan>
<tspan x="10" y="666">&gt; server listening on http-port 61726</tspan>
<tspan x="10" y="682">[6110:0407/104837:ERROR:browser_gpu_channel_host_factory.cc(131)] Failed to create channel.</tspan>
<tspan x="10" y="698">Xlib:  extension "RANDR" missing on display ":99.0".</tspan>
<tspan x="10" y="714">[6114:0407/104837:WARNING:audio_manager.cc(314)] Multiple instances of AudioManager detected</tspan>
<tspan x="10" y="730">[6114:0407/104837:WARNING:audio_manager.cc(275)] Multiple instances of AudioManager detected</tspan>
<tspan x="10" y="746">[6187:0407/104837:ERROR:sandbox_linux.cc(343)] InitializeSandbox() called with multiple threads \</tspan>
<tspan x="10" y="762">in process gpu-process. </tspan>
<tspan x="10" y="778">[6114:0407/104837:ERROR:browser_gpu_channel_host_factory.cc(131)] Failed to create channel.</tspan>
<tspan x="10" y="794"></tspan>
<tspan x="10" y="810">browserTest - opened url /home/travis/build/npmdoc/node-npmdoc-react-native-sqlite-storage/tmp/b\</tspan>
<tspan x="10" y="826">uild/apidoc.html</tspan>
<tspan x="10" y="842"></tspan>
<tspan x="10" y="858"></tspan>
<tspan x="10" y="874">browserTest - opened url http://127.0.0.1:49255?modeTest=1</tspan>
<tspan x="10" y="890"></tspan>
<tspan x="10" y="906">[6114:0407/104839:INFO:CONSOLE(250)] "----------|-----------|-----------|-----------|-----------\</tspan>
<tspan x="10" y="922">|</tspan>
<tspan x="10" y="938">File      |   % Stmts |% Branches |   % Funcs |   % Lines |</tspan>
<tspan x="10" y="954">----------|-----------|-----------|-----------|-----------|</tspan>
<tspan x="10" y="970">----------|-----------|-----------|-----------|-----------|</tspan>
<tspan x="10" y="986">All files |       100 |       100 |       100 |       100 |</tspan>
<tspan x="10" y="1002">----------|-----------|-----------|-----------|-----------|</tspan>
<tspan x="10" y="1018">", source: file:///home/travis/build/npmdoc/node-npmdoc-react-native-sqlite-storage/tmp/electron\</tspan>
<tspan x="10" y="1034">.15b4807b47c0.1ab7a910244e7.html (250)</tspan>
<tspan x="10" y="1050">[6114:0407/104839:INFO:CONSOLE(250)] "created coverage file:///tmp/build/coverage.html/index.htm\</tspan>
<tspan x="10" y="1066">l", source: file:///home/travis/build/npmdoc/node-npmdoc-react-native-sqlite-storage/tmp/electro\</tspan>
<tspan x="10" y="1082">n.15b4807b47c0.1ab7a910244e7.html (250)</tspan>
<tspan x="10" y="1098">[node test-case 4 of 6 passed] - testCase_buildApp_default</tspan>
<tspan x="10" y="1114"></tspan>
<tspan x="10" y="1130">browserTest - created screenCapture file:///home/travis/build/npmdoc/node-npmdoc-react-native-sq\</tspan>
<tspan x="10" y="1146">lite-storage/tmp/build/screenCapture.npmTest.browser._2Fhome_2Ftravis_2Fbuild_2Fnpmdoc_2Fnode-np\</tspan>
<tspan x="10" y="1162">mdoc-react-native-sqlite-storage_2Ftmp_2Fbuild_2Fapidoc.html.png</tspan>
<tspan x="10" y="1178"></tspan>
<tspan x="10" y="1194">browserTest - created screenCapture file:///home/travis/build/npmdoc/node-npmdoc-react-native-sq\</tspan>
<tspan x="10" y="1210">lite-storage/tmp/build/screenCapture.npmTest.browser._2Fhome_2Ftravis_2Fbuild_2Fnpmdoc_2Fnode-np\</tspan>
<tspan x="10" y="1226">mdoc-react-native-sqlite-storage_2Ftmp_2Fbuild_2Fapidoc.html.html</tspan>
<tspan x="10" y="1242"></tspan>
<tspan x="10" y="1258">browserTest - exit-code 0 - /home/travis/build/npmdoc/node-npmdoc-react-native-sqlite-storage/tm\</tspan>
<tspan x="10" y="1274">p/build/apidoc.html</tspan>
<tspan x="10" y="1290"></tspan>
<tspan x="10" y="1306">[node test-case 5 of 6 passed] - testCase_buildApidoc_default</tspan>
<tspan x="10" y="1322"></tspan>
<tspan x="10" y="1338">browserTest - created screenCapture file:///home/travis/build/npmdoc/node-npmdoc-react-native-sq\</tspan>
<tspan x="10" y="1354">lite-storage/tmp/build/screenCapture.npmTest.browser..png</tspan>
<tspan x="10" y="1370"></tspan>
<tspan x="10" y="1386">browserTest - created screenCapture file:///home/travis/build/npmdoc/node-npmdoc-react-native-sq\</tspan>
<tspan x="10" y="1402">lite-storage/tmp/build/screenCapture.npmTest.browser..html</tspan>
<tspan x="10" y="1418"></tspan>
<tspan x="10" y="1434">browserTest - exit-code 0 - http://127.0.0.1:49255?modeTest=1</tspan>
<tspan x="10" y="1450"></tspan>
<tspan x="10" y="1466"></tspan>
<tspan x="10" y="1482">browserTest - merged coverage from /home/travis/build/npmdoc/node-npmdoc-react-native-sqlite-sto\</tspan>
<tspan x="10" y="1498">rage/tmp/coverage.npmTest.browser.%2F.json</tspan>
<tspan x="10" y="1514"></tspan>
<tspan x="10" y="1530"></tspan>
<tspan x="10" y="1546">browserTest - merging test-report from /home/travis/build/npmdoc/node-npmdoc-react-native-sqlite\</tspan>
<tspan x="10" y="1562">-storage/tmp/test-report.npmTest.browser.%2F.json</tspan>
<tspan x="10" y="1578"></tspan>
<tspan x="10" y="1594">[node test-case 6 of 6 passed] - testCase_webpage_default</tspan>
<tspan x="10" y="1610">------------------------------------------------|-----------|-----------|-----------|-----------\</tspan>
<tspan x="10" y="1626">|</tspan>
<tspan x="10" y="1642">File                                            |   % Stmts |% Branches |   % Funcs |   % Lines \</tspan>
<tspan x="10" y="1658">|</tspan>
<tspan x="10" y="1674">------------------------------------------------|-----------|-----------|-----------|-----------\</tspan>
<tspan x="10" y="1690">|</tspan>
<tspan x="10" y="1706">   node-npmdoc-react-native-sqlite-storage/     |       100 |       100 |       100 |       100 \</tspan>
<tspan x="10" y="1722">|</tspan>
<tspan x="10" y="1738">      example.js                                |       100 |       100 |       100 |       100 \</tspan>
<tspan x="10" y="1754">|</tspan>
<tspan x="10" y="1770">      lib.npmdoc_react_native_sqlite_storage.js |       100 |       100 |       100 |       100 \</tspan>
<tspan x="10" y="1786">|</tspan>
<tspan x="10" y="1802">      test.js                                   |       100 |       100 |       100 |       100 \</tspan>
<tspan x="10" y="1818">|</tspan>
<tspan x="10" y="1834">------------------------------------------------|-----------|-----------|-----------|-----------\</tspan>
<tspan x="10" y="1850">|</tspan>
<tspan x="10" y="1866">All files                                       |       100 |       100 |       100 |       100 \</tspan>
<tspan x="10" y="1882">|</tspan>
<tspan x="10" y="1898">------------------------------------------------|-----------|-----------|-----------|-----------\</tspan>
<tspan x="10" y="1914">|</tspan>
<tspan x="10" y="1930"></tspan>
<tspan x="10" y="1946">created coverage file:///home/travis/build/npmdoc/node-npmdoc-react-native-sqlite-storage/tmp/bu\</tspan>
<tspan x="10" y="1962">ild/coverage.html/index.html</tspan>
<tspan x="10" y="1978">merging file:///home/travis/build/npmdoc/node-npmdoc-react-native-sqlite-storage/tmp/build/test-\</tspan>
<tspan x="10" y="1994">report.json to test-report</tspan>
<tspan x="10" y="2010"></tspan>
<tspan x="10" y="2026">-------------------------------------------------------</tspan>
<tspan x="10" y="2042">| test-report - buildNpmdoc - node - linux v6.10.2 - 2017-04-07T10:47:14.909Z</tspan>
<tspan x="10" y="2058">|   95288 ms            0 failed        6 passed      |</tspan>
<tspan x="10" y="2074">-------------------------------------------------------</tspan>
<tspan x="10" y="2090"></tspan>
<tspan x="10" y="2106">created test-report file:///home/travis/build/npmdoc/node-npmdoc-react-native-sqlite-storage/tmp\</tspan>
<tspan x="10" y="2122">/build/test-report.html</tspan>
<tspan x="10" y="2138"></tspan>
<tspan x="10" y="2154"></tspan>
<tspan x="10" y="2170">npmTest - 0 failed tests</tspan>
<tspan x="10" y="2186"></tspan>
<tspan x="10" y="2202"></tspan>
<tspan x="10" y="2218">[MODE_BUILD=npmTest] - 2017-04-07T10:48:54Z - EXIT_CODE - 0</tspan>
</text>
</svg>
